<?xml version="1.0" encoding="UTF-8" standalone="no"?>
<!-- Generator: Gravit.io -->
<svg xmlns="http://www.w3.org/2000/svg" xmlns:xlink="http://www.w3.org/1999/xlink" style="isolation:isolate" viewBox="0 0 200 500" width="200px" height="500px"><path d=" M 114.103 229.991 C 112.813 234.662 112.46 240.359 112.575 248.124 C 112.846 266.35 114.619 350.069 119.575 396.124 C 122.018 418.82 136.736 467.838 122.684 470.153 C 108.633 472.468 99.704 473.292 87.575 470.153 C 75.446 467.014 89.528 426.648 91.575 396.124 C 93.623 365.599 91.951 274.966 91.575 248.124 C 91.447 238.978 90.831 232.711 89.482 227.859 L 114.103 229.991 L 114.103 229.991 Z  M 111.576 228.859 L 89.56 228.859 Q 73.465 95.332 71.56 63.859 C 70.137 40.349 74.97 29.123 86.56 27.859 C 101.54 26.225 117.521 53.868 120.56 82.859 Q 126.839 142.752 114.56 228.859 L 111.576 228.859 Z " fill-rule="evenodd" fill="rgb(242,242,242)" vector-effect="non-scaling-stroke" stroke-width="1" stroke="rgb(209,209,209)" stroke-linejoin="miter" stroke-linecap="square" stroke-miterlimit="3"/></svg>