<?xml version="1.0" encoding="UTF-8" standalone="no"?>
<!-- Generator: Gravit.io -->
<svg xmlns="http://www.w3.org/2000/svg" xmlns:xlink="http://www.w3.org/1999/xlink" style="isolation:isolate" viewBox="0 0 200 500" width="200px" height="500px"><path d=" M 127.142 201.38 C 146.104 190.739 159.649 162.779 159.649 130 C 159.649 88.054 137.469 54 110.149 54 C 82.83 54 60.649 88.054 60.649 130 C 60.649 162.589 74.038 190.415 92.827 201.195 C 97.058 207.248 98.674 214.48 98.891 229.97 C 99.266 256.813 100.939 347.446 98.891 377.97 C 96.843 408.495 82.762 448.861 94.891 452 C 107.02 455.139 115.948 454.315 130 452 C 144.052 449.685 129.333 400.667 126.891 377.97 C 121.935 331.916 120.162 248.197 119.891 229.97 C 119.676 215.523 121.084 208.235 127.142 201.38 Z " fill-rule="evenodd" fill="rgb(242,242,242)" vector-effect="non-scaling-stroke" stroke-width="1" stroke="rgb(209,209,209)" stroke-linejoin="miter" stroke-linecap="square" stroke-miterlimit="3"/><ellipse vector-effect="non-scaling-stroke" cx="108.9385528564453" cy="130.79530334472656" rx="43.850674697024985" ry="72" fill="none" stroke-width="1" stroke="rgb(209,209,209)" stroke-linejoin="miter" stroke-linecap="square" stroke-miterlimit="3"/></svg>